<svg version="1.2" xmlns="http://www.w3.org/2000/svg" viewBox="0 0 32 33" width="32" height="33">
	<title>Shape 8 copy 4</title>
	<style>
		.s0 { opacity: .5;fill: #f5c506 } 
		.s1 { fill: #f5c506 } 
	</style>
	<path id="Shape 8 copy 4" class="s0" d="m1.8 9.3l7-0.2-0.1-7.1 3 2.9v7l-6.9 0.3zm4.5 4.3l7-0.2-0.1-7.1 3 2.9v7l-6.9 0.3zm14.7 14.2v-7l6.9-0.3 3 2.9-6.9 0.3v7zm-4.5-4.4l-0.1-7 7-0.3 3 2.9-7 0.3 0.1 7zm6.8-21.8l0.3 7 6.9-0.1-2.8 3-7 0.1-0.2-7zm-4.4 4.5l0.3 7h7l-2.9 3h-6.9l-0.3-7zm-14.1 14.9l7-0.1 0.2 7-2.8 3-0.3-7-7 0.1zm4.4-4.6h6.9l0.3 7-2.9 3-0.2-7h-7z"/>
	<path id="Shape 8 copy 3" class="s1" d="m1 21.5l4.8-5-4.8-5h4.1l4.9 5-4.9 5zm6.3 0l4.8-5-4.8-5h4.1l4.8 5-4.8 5zm20.4 0l-4.9-5 4.9-5h4.1l-4.8 5 4.8 5zm-6.2 0l-4.9-5 4.9-5h4.1l-4.9 5 4.9 5zm-10.1-20.5l5 4.9 5.1-4.9v4.1l-5.1 4.9-5-4.9zm0 6.3l5 4.9 5.1-4.9v4.2l-5.1 4.9-5-4.9zm0 20.5l5-4.8 5.1 4.8v4.2l-5.1-4.9-5 4.9zm0-6.3l5-4.9 5.1 4.9v4.1l-5.1-4.8-5 4.8z"/>
</svg>