<svg version="1.2" xmlns="http://www.w3.org/2000/svg" viewBox="0 0 38 38" width="38" height="38">
	<title>Group 1</title>
	<style>
		.s0 { opacity: .5;fill: #f5c506 } 
		.s1 { fill: #f5c506 } 
	</style>
	<g id="Group 1">
		<path id="Shape 8 copy 4" class="s0" d="m0 10.5l9-0.4-0.1-8.8 3.9 3.6v8.8l-8.9 0.4zm5.8 5.4l8.9-0.3v-8.8l3.8 3.6v8.8l-8.9 0.3zm19 17.9l-0.1-8.8 9-0.3 3.8 3.6-9 0.3 0.1 8.8zm-5.8-5.4l-0.1-8.9 9-0.3 3.8 3.6-8.9 0.3v8.9zm8.8-27.5l0.4 8.8h8.9l-3.6 3.7-9 0.1-0.3-8.8zm-5.6 5.7l0.4 8.8h8.9l-3.6 3.7-9 0.1-0.3-8.8zm-18.2 18.7l9-0.1 0.3 8.8-3.7 3.8-0.3-8.8h-9zm5.6-5.7h9l0.3 8.8-3.7 3.7-0.3-8.8-9 0.1z"/>
		<path id="Shape 8 copy 3" class="s1" d="m-1 25.8l6.2-6.3-6.2-6.3h5.3l6.2 6.3-6.2 6.3zm8 0l6.3-6.3-6.3-6.3h5.3l6.3 6.3-6.3 6.3zm26.3 0l-6.3-6.3 6.3-6.3h5.3l-6.3 6.3 6.3 6.3zm-8.1 0l-6.2-6.3 6.2-6.3h5.3l-6.2 6.3 6.2 6.3zm-12.9-25.8l6.5 6.1 6.4-6.1v5.2l-6.4 6.2-6.5-6.2zm0 7.9l6.5 6.2 6.4-6.2v5.2l-6.4 6.2-6.5-6.2zm0 25.9l6.5-6.1 6.4 6.1v5.2l-6.4-6.1-6.5 6.1zm0-7.9l6.5-6.1 6.4 6.1v5.2l-6.4-6.1-6.5 6.1z"/>
	</g>
</svg>