<svg version="1.2" xmlns="http://www.w3.org/2000/svg" viewBox="0 0 29 22" width="29" height="22">
	<title>Shape 7</title>
	<style>
		.s0 { fill: #b99403 } 
	</style>
	<path id="Shape 7" fill-rule="evenodd" class="s0" d="m28.7 21.2l-9.7-9.7 7.2-7.1 2.5-2.6c0.2 0.3 0.3 0.6 0.3 0.9v17.5c0 0.4-0.1 0.7-0.3 1zm-3.1-17.4l-3.3 3.2-6.2 6.3-1.1 1.1-10.6-10.6-1.7-1.7-0.8-0.8c0.2-0.2 0.5-0.3 0.8-0.3h24.5c0.4 0 0.6 0.1 0.9 0.2l-0.9 0.9zm-23.5-1.1l8.8 8.9-9.6 9.6c-0.1-0.3-0.3-0.6-0.3-0.9v-17.5c0-0.3 0.2-0.6 0.3-0.9l0.8 0.8zm9.4 9.5l0.4 0.3 0.1 0.2 1.2 1.2 1.8 1.7h0.1l1.6-1.7 1.8-1.7 9.6 9.6q-0.4 0.2-0.8 0.3h-24.5c-0.3 0-0.6-0.2-0.9-0.3z"/>
</svg>