<svg version="1.2" xmlns="http://www.w3.org/2000/svg" viewBox="0 0 159 134" width="159" height="134">
	<title>twitter</title>
	<style>
		.s0 { fill-opacity: .9;fill: #bc7d00 } 
	</style>
	<path id="twitter" class="s0" d="m158.5 16.3l-14.8 15.3c0 0 0-1.4 0 2.6 0 2.8-0.4 5.5-1.1 8-0.3 21.1-6.8 49-33.5 71.1-52.4 43.4-108.6 5.1-108.6 5.1 44.4 0 44.4-15.3 44.4-15.3-9.9 0-29.6-20.4-29.6-20.4 4.9 5.1 14.8 0 14.8 0-24.7-15.3-24.7-30.7-24.7-30.7 5 5.1 14.8 0 14.8 0-24.7-20.4-9.8-45.9-9.8-45.9 4.9 25.5 69.1 35.7 69.1 35.7l0.8-0.4c-0.5-2.3-0.8-7.3-0.8-9.8 0-18.3 14.4-30.6 32.1-30.6 9.8 0 18.4 4.6 24.3 11.7l2.9-1.5 14.8-10.2-9.9 20.4z"/>
</svg>