<svg version="1.2" xmlns="http://www.w3.org/2000/svg" viewBox="0 0 23 23" width="23" height="23">
	<title>Shape 6</title>
	<style>
		.s0 { fill: #b99403 } 
	</style>
	<path id="Shape 6" fill-rule="evenodd" class="s0" d="m17.2 2.8c-1.1 1.1-1.1 2.9 0 4 1.1 1.1 2.9 1.1 4 0l1.6-1.6q0.2 0.7 0.2 1.5c0 3.1-2.5 5.6-5.7 5.6q-0.7 0-1.4-0.2-0.1 0-0.1 0l-10 10c-1.1 1.1-2.9 1.1-4 0-1.1-1.1-1.1-2.8 0-4l10-9.9q0.1-0.1 0.1-0.1-0.2-0.7-0.2-1.4c0-3.2 2.5-5.7 5.6-5.7q0.8 0 1.5 0.2zm-13.3 16.6c-0.4 0-0.7 0.3-0.7 0.7 0 0.4 0.3 0.7 0.7 0.7 0.4 0 0.7-0.3 0.7-0.7 0-0.4-0.3-0.7-0.7-0.7z"/>
</svg>